<?xml version="1.0" standalone="no"?><!DOCTYPE svg PUBLIC "-//W3C//DTD SVG 1.1//EN" "http://www.w3.org/Graphics/SVG/1.1/DTD/svg11.dtd"><svg width="100%" height="100%" viewBox="0 0 482 155" version="1.1" xmlns="http://www.w3.org/2000/svg" xmlns:xlink="http://www.w3.org/1999/xlink" xml:space="preserve" style="fill-rule:evenodd;clip-rule:evenodd;stroke-linejoin:round;stroke-miterlimit:1.41421;"><g><path d="M114.383,77.526c-3.861,5.932 -10.554,9.8 -18.107,9.8c-8.548,0 -15.94,-4.985 -19.497,-12.233l-16.106,24.727c8.974,9.464 21.607,15.358 35.603,15.358c17.276,0 32.473,-8.98 41.28,-22.572l50.232,-77.101l-32.994,0l-40.411,62.021l0,0ZM78.169,53.156c3.861,-5.932 10.554,-9.799 18.107,-9.799c8.548,0 15.94,4.984 19.497,12.231l16.106,-24.726c-8.974,-9.463 -21.607,-15.357 -35.603,-15.357c-17.276,0 -32.474,8.98 -41.28,22.571l-50.232,77.102l32.994,0l40.411,-62.022l0,0ZM96.276,54.247c6.063,0 10.978,4.966 10.978,11.094c0,6.128 -4.915,11.095 -10.978,11.095c-6.063,0 -10.978,-4.967 -10.978,-11.095c0,-6.128 4.915,-11.094 10.978,-11.094" style="fill:#7a00d1;fill-rule:nonzero;"/><g><text x="179.929px" y="92.185px" style="font-family:CiutadellaW04-Medium;font-size:65px;font-weight:500;fill:#23282d;">P<tspan x="212.949px 248.244px " y="92.185px 92.185px ">AS</tspan>SSTER</text></g></g></svg>